<svg xmlns="http://www.w3.org/2000/svg" xmlns:xlink="http://www.w3.org/1999/xlink" width="40" zoomAndPan="magnify" viewBox="0 0 30 30.000001" height="40" preserveAspectRatio="xMidYMid meet" version="1.0"><defs><clipPath id="10d5526ed4"><path d="M 7.519531 4.710938 L 29.167969 4.710938 L 29.167969 25.382812 L 7.519531 25.382812 Z M 7.519531 4.710938 " clip-rule="nonzero"/></clipPath><clipPath id="a00c944af6"><path d="M 0.832031 3.675781 L 13.929688 3.675781 L 13.929688 25.324219 L 0.832031 25.324219 Z M 0.832031 3.675781 " clip-rule="nonzero"/></clipPath><clipPath id="b57ff13f05"><path d="M 1.109375 3.707031 L 14.207031 3.707031 L 14.207031 25.355469 L 1.109375 25.355469 Z M 1.109375 3.707031 " clip-rule="nonzero"/></clipPath></defs><g clip-path="url(#10d5526ed4)"><path fill="#000000" d="M 28.1875 14.683594 C 28.824219 13.832031 29.148438 12.816406 29.152344 11.667969 C 29.15625 10.433594 28.761719 9.414062 27.980469 8.625 C 27.25 7.890625 26.515625 7.15625 25.785156 6.421875 C 25.832031 6.46875 25.875 6.515625 25.921875 6.5625 C 25.691406 6.308594 25.425781 6.082031 25.125 5.875 C 23.996094 5.105469 22.382812 4.710938 20.339844 4.710938 L 11.816406 4.710938 C 11.429688 4.710938 11.101562 4.980469 11.027344 5.351562 L 7.578125 22.21875 C 7.53125 22.453125 7.585938 22.699219 7.742188 22.886719 C 7.757812 22.910156 7.777344 22.929688 7.796875 22.949219 C 7.796875 22.949219 7.792969 22.949219 7.792969 22.941406 C 8.523438 23.675781 9.253906 24.414062 9.988281 25.144531 C 10.003906 25.164062 10.027344 25.1875 10.050781 25.207031 C 10.0625 25.210938 10.066406 25.214844 10.074219 25.222656 C 10.089844 25.238281 10.109375 25.246094 10.128906 25.257812 C 10.132812 25.257812 10.132812 25.261719 10.136719 25.261719 C 10.144531 25.265625 10.152344 25.269531 10.160156 25.277344 C 10.167969 25.28125 10.179688 25.285156 10.1875 25.289062 C 10.203125 25.292969 10.214844 25.304688 10.230469 25.308594 C 10.238281 25.3125 10.25 25.316406 10.253906 25.316406 C 10.269531 25.324219 10.285156 25.332031 10.300781 25.335938 C 10.304688 25.335938 10.316406 25.339844 10.320312 25.347656 C 10.34375 25.351562 10.367188 25.359375 10.390625 25.363281 C 10.410156 25.371094 10.425781 25.371094 10.445312 25.375 C 10.457031 25.375 10.460938 25.378906 10.46875 25.378906 C 10.496094 25.382812 10.519531 25.382812 10.550781 25.382812 L 19.8125 25.382812 C 22.25 25.382812 24.277344 24.886719 25.832031 23.894531 C 27.507812 22.835938 28.359375 21.265625 28.367188 19.230469 C 28.375 18.296875 28.128906 17.464844 27.648438 16.761719 C 27.5 16.542969 27.332031 16.347656 27.148438 16.160156 C 27.070312 16.078125 26.984375 15.996094 26.90625 15.914062 C 27.40625 15.566406 27.835938 15.15625 28.1875 14.683594 Z M 8.132812 22.296875 L 11.511719 5.390625 C 11.535156 5.277344 11.632812 5.199219 11.746094 5.199219 L 20.28125 5.199219 C 22.21875 5.199219 23.726562 5.558594 24.773438 6.269531 C 25.84375 6.996094 26.386719 8.050781 26.386719 9.402344 C 26.386719 10.4375 26.101562 11.339844 25.542969 12.09375 C 25.078125 12.722656 24.449219 13.238281 23.679688 13.636719 C 24.230469 13.953125 24.675781 14.351562 25.003906 14.832031 C 25.425781 15.441406 25.636719 16.164062 25.636719 16.984375 C 25.636719 18.820312 24.875 20.234375 23.375 21.1875 C 21.914062 22.117188 19.988281 22.589844 17.652344 22.589844 L 8.375 22.589844 C 8.304688 22.589844 8.234375 22.558594 8.1875 22.5 C 8.140625 22.441406 8.121094 22.367188 8.132812 22.296875 Z M 8.132812 22.296875 " fill-opacity="1" fill-rule="nonzero"/></g><path fill="#000000" d="M 18.550781 11.90625 C 18.570312 11.90625 18.585938 11.90625 18.601562 11.90625 C 19.371094 11.902344 19.957031 11.75 20.347656 11.460938 C 20.449219 11.386719 20.539062 11.300781 20.609375 11.203125 C 20.703125 11.078125 20.777344 10.949219 20.824219 10.792969 C 20.84375 10.738281 20.859375 10.679688 20.871094 10.625 C 20.871094 10.621094 20.878906 10.617188 20.878906 10.605469 C 20.902344 10.484375 20.914062 10.351562 20.914062 10.210938 C 20.914062 9.746094 20.730469 9.121094 19.152344 9.121094 L 15.972656 9.121094 L 15.421875 11.902344 L 18.550781 11.902344 Z M 18.550781 11.90625 " fill-opacity="1" fill-rule="nonzero"/><path fill="#000000" d="M 17.28125 18.648438 L 17.929688 18.648438 C 18.351562 18.648438 18.71875 18.605469 19.042969 18.515625 C 19.335938 18.441406 19.589844 18.328125 19.792969 18.183594 C 19.945312 18.074219 20.066406 17.953125 20.164062 17.8125 C 20.234375 17.707031 20.292969 17.589844 20.332031 17.464844 C 20.355469 17.398438 20.371094 17.328125 20.386719 17.253906 C 20.386719 17.25 20.386719 17.238281 20.390625 17.234375 C 20.410156 17.121094 20.417969 17.003906 20.417969 16.882812 C 20.417969 16.484375 20.28125 16.195312 19.996094 16.007812 C 19.683594 15.800781 19.242188 15.699219 18.683594 15.699219 L 14.652344 15.699219 L 14.070312 18.648438 Z M 17.28125 18.648438 " fill-opacity="1" fill-rule="nonzero"/><path fill="#ffffff" d="M 25.546875 12.089844 C 26.105469 11.332031 26.390625 10.425781 26.390625 9.398438 C 26.390625 8.046875 25.847656 6.996094 24.777344 6.261719 C 23.738281 5.554688 22.226562 5.191406 20.285156 5.191406 L 11.75 5.191406 C 11.632812 5.191406 11.535156 5.273438 11.515625 5.386719 L 8.132812 22.296875 C 8.121094 22.367188 8.140625 22.441406 8.1875 22.496094 C 8.234375 22.554688 8.296875 22.585938 8.375 22.585938 L 17.660156 22.585938 C 19.996094 22.585938 21.921875 22.117188 23.386719 21.183594 C 24.886719 20.230469 25.644531 18.816406 25.644531 16.980469 C 25.644531 16.164062 25.433594 15.4375 25.011719 14.824219 C 24.679688 14.347656 24.238281 13.945312 23.691406 13.632812 C 24.460938 13.234375 25.082031 12.71875 25.546875 12.089844 Z M 15.976562 9.132812 L 19.15625 9.132812 C 20.738281 9.132812 20.917969 9.75 20.917969 10.222656 C 20.917969 10.363281 20.90625 10.492188 20.882812 10.617188 C 20.882812 10.621094 20.878906 10.625 20.878906 10.632812 C 20.863281 10.691406 20.847656 10.746094 20.832031 10.804688 C 20.777344 10.953125 20.707031 11.089844 20.613281 11.210938 C 20.539062 11.304688 20.449219 11.390625 20.351562 11.46875 C 19.964844 11.761719 19.378906 11.910156 18.609375 11.914062 C 18.589844 11.914062 18.574219 11.914062 18.554688 11.914062 L 15.425781 11.914062 Z M 17.921875 18.648438 L 14.070312 18.648438 L 14.652344 15.699219 L 18.671875 15.699219 C 19.230469 15.699219 19.675781 15.800781 19.988281 16.007812 C 20.273438 16.195312 20.410156 16.484375 20.410156 16.882812 C 20.410156 17.007812 20.398438 17.125 20.378906 17.234375 C 20.378906 17.238281 20.378906 17.25 20.375 17.253906 C 20.363281 17.328125 20.347656 17.398438 20.324219 17.464844 C 20.28125 17.589844 20.226562 17.703125 20.15625 17.8125 C 20.0625 17.953125 19.941406 18.074219 19.785156 18.183594 C 19.578125 18.328125 19.324219 18.441406 19.035156 18.515625 C 18.714844 18.601562 18.34375 18.648438 17.921875 18.648438 Z M 17.921875 18.648438 " fill-opacity="1" fill-rule="nonzero"/><path fill="#000000" d="M 11.746094 8.59375 C 11.730469 8.59375 11.710938 8.59375 11.699219 8.585938 C 11.570312 8.558594 11.492188 8.4375 11.515625 8.308594 L 11.960938 6.152344 C 11.984375 6.042969 12.078125 5.964844 12.191406 5.964844 L 15.238281 5.964844 C 15.367188 5.964844 15.472656 6.066406 15.472656 6.199219 C 15.472656 6.328125 15.367188 6.433594 15.238281 6.433594 L 12.382812 6.433594 L 11.972656 8.402344 C 11.949219 8.515625 11.851562 8.59375 11.746094 8.59375 Z M 11.746094 8.59375 " fill-opacity="1" fill-rule="nonzero"/><g clip-path="url(#a00c944af6)"><path fill="#ffffff" d="M 0.953125 4.171875 C 1.0625 4.101562 1.160156 4.03125 1.269531 3.957031 C 1.375 3.886719 1.480469 3.8125 1.585938 3.742188 C 1.679688 3.675781 1.691406 3.695312 1.746094 3.777344 C 2.128906 4.367188 2.519531 4.957031 2.90625 5.546875 C 2.925781 5.625 2.867188 5.582031 2.9375 5.679688 C 3.007812 5.777344 3.632812 6.625 3.65625 6.679688 C 3.8125 6.675781 3.851562 6.679688 3.921875 6.792969 C 4.175781 6.804688 4.410156 6.84375 4.496094 7.144531 C 4.503906 7.222656 4.511719 7.261719 4.496094 7.339844 C 4.464844 7.519531 4.414062 7.457031 4.496094 7.542969 C 4.507812 7.554688 4.507812 7.554688 4.519531 7.570312 L 4.53125 7.59375 C 4.53125 7.589844 4.535156 7.597656 4.535156 7.597656 L 4.539062 7.628906 L 4.542969 7.667969 C 4.511719 7.816406 4.449219 7.871094 4.367188 7.960938 C 4.378906 8.015625 4.527344 8.300781 4.5625 8.378906 C 4.625 8.515625 4.691406 8.648438 4.757812 8.785156 C 4.949219 9.167969 5.152344 9.597656 5.34375 10.011719 L 6.023438 11.429688 L 6.261719 11.25 C 6.273438 11.242188 6.40625 11.144531 6.519531 11.074219 C 6.539062 11.0625 6.570312 11.082031 6.585938 11.074219 C 6.605469 11.058594 6.613281 11.019531 6.632812 11.003906 C 6.796875 10.875 6.875 10.765625 6.917969 10.753906 L 7.058594 10.640625 L 7.105469 10.605469 C 7.113281 10.601562 7.121094 10.59375 7.128906 10.589844 C 7.136719 10.585938 7.148438 10.578125 7.152344 10.574219 C 7.152344 10.574219 7.214844 10.527344 7.21875 10.523438 C 7.378906 10.453125 7.546875 10.308594 7.652344 10.273438 C 8.015625 10.144531 7.804688 10.378906 8.128906 10.214844 C 8.242188 10.261719 8.210938 10.261719 8.246094 10.277344 C 8.546875 10.402344 8.414062 10.191406 8.671875 10.664062 L 8.765625 10.796875 C 8.804688 10.839844 8.828125 10.882812 8.871094 10.914062 L 9.339844 11.175781 C 9.703125 11.28125 9.40625 11.238281 9.746094 11.460938 C 9.867188 11.539062 9.777344 11.460938 9.863281 11.570312 L 10.113281 11.886719 C 10.148438 11.929688 10.144531 11.921875 10.160156 11.9375 C 10.203125 11.980469 10.171875 11.964844 10.210938 11.988281 C 11.746094 12.046875 12.941406 12.179688 13.394531 12.34375 C 13.402344 12.347656 13.414062 12.347656 13.421875 12.351562 C 13.445312 12.355469 13.46875 12.363281 13.492188 12.371094 C 13.601562 12.410156 13.761719 12.480469 13.839844 12.582031 C 13.914062 12.679688 13.921875 12.796875 13.769531 12.933594 L 12.003906 15.5625 C 11.554688 16.230469 11.230469 16.867188 11.609375 17.691406 C 11.972656 18.601562 12.101562 19.480469 11.972656 20.324219 C 11.863281 21.046875 11.566406 21.738281 11.070312 22.40625 L 11.371094 23.652344 C 11.714844 23.679688 11.921875 23.929688 12.070312 24.277344 C 12.292969 24.320312 12.433594 24.414062 12.523438 24.546875 C 12.835938 25.015625 12.464844 25.066406 12.109375 25.113281 C 10.878906 25.277344 9.78125 25.320312 8.558594 25.324219 C 7.335938 25.320312 6.242188 25.277344 5.011719 25.113281 C 4.65625 25.066406 4.285156 25.015625 4.597656 24.546875 C 4.683594 24.414062 4.824219 24.320312 5.046875 24.277344 C 5.199219 23.929688 5.40625 23.679688 5.75 23.652344 L 6.035156 22.460938 C 5.058594 21.496094 4.878906 19.871094 5.203125 18.566406 C 5.289062 18.210938 5.433594 17.789062 5.457031 17.414062 C 5.519531 16.527344 5.085938 16.117188 4.601562 15.332031 L 3.128906 12.953125 C 3.066406 12.894531 3.035156 12.839844 3.023438 12.789062 C 3.003906 12.703125 3.042969 12.632812 3.105469 12.570312 C 3.160156 12.523438 3.238281 12.460938 3.324219 12.414062 C 3.386719 12.378906 3.453125 12.351562 3.511719 12.335938 C 3.683594 12.277344 3.949219 12.222656 4.292969 12.175781 C 4.292969 12.167969 4.300781 12.160156 4.308594 12.15625 C 4.332031 12.144531 4.355469 12.144531 4.367188 12.132812 C 4.386719 12.113281 4.378906 12.074219 4.417969 12.082031 C 4.449219 12.085938 4.445312 12.128906 4.464844 12.109375 C 4.472656 12.105469 4.464844 12.070312 4.484375 12.054688 C 4.511719 12.03125 4.566406 12.023438 4.652344 11.953125 L 4.695312 11.910156 C 4.765625 11.828125 4.851562 12.066406 5.039062 12.042969 L 5.21875 12.011719 C 5.203125 11.988281 5.191406 11.992188 5.15625 11.886719 C 5.292969 11.914062 5.449219 11.917969 5.515625 11.863281 C 5.183594 11.152344 4.546875 9.820312 4.527344 9.785156 L 4.21875 9.136719 C 4.191406 9.078125 3.828125 8.304688 3.796875 8.269531 C 3.695312 8.269531 3.625 8.296875 3.53125 8.257812 C 3.496094 8.242188 3.46875 8.222656 3.449219 8.191406 C 3.425781 8.15625 3.429688 8.121094 3.410156 8.085938 C 3.378906 8.058594 3.195312 8.066406 3.0625 7.917969 C 2.976562 7.816406 2.9375 7.671875 2.972656 7.511719 C 2.988281 7.449219 3.015625 7.378906 3.046875 7.328125 C 3.113281 7.210938 3.027344 7.25 3.046875 7.128906 C 3.0625 7.039062 3.132812 7.019531 3.082031 6.953125 C 2.894531 6.703125 2.714844 6.433594 2.523438 6.183594 C 2.484375 6.132812 2.449219 6.085938 2.410156 6.03125 C 2.316406 5.894531 2.339844 6.007812 2.265625 5.917969 L 1.542969 5.050781 C 1.382812 4.859375 1.222656 4.667969 1.0625 4.472656 C 0.914062 4.285156 0.835938 4.25 0.953125 4.171875 Z M 10.480469 12.175781 C 10.546875 12.257812 10.566406 12.113281 10.628906 12.378906 C 10.703125 12.703125 10.609375 12.285156 10.882812 12.527344 C 10.9375 12.582031 10.957031 12.621094 10.992188 12.660156 C 11.046875 12.722656 11.121094 12.761719 11.207031 12.792969 C 12.300781 12.742188 13.007812 12.648438 13.007812 12.496094 C 13.007812 12.3125 11.980469 12.214844 10.480469 12.175781 Z M 3.875 12.496094 C 3.875 12.546875 3.953125 12.589844 4.097656 12.628906 C 4.097656 12.621094 4.097656 12.617188 4.09375 12.609375 C 4.089844 12.585938 4.132812 12.566406 4.136719 12.519531 C 4.140625 12.503906 4.1875 12.511719 4.195312 12.496094 C 4.203125 12.472656 4.179688 12.464844 4.195312 12.453125 C 4.207031 12.441406 4.242188 12.421875 4.25 12.414062 C 4.273438 12.390625 4.265625 12.367188 4.273438 12.34375 C 4.277344 12.335938 4.277344 12.328125 4.28125 12.324219 C 4.019531 12.371094 3.875 12.425781 3.875 12.496094 Z M 3.3125 12.550781 C 3.261719 12.585938 3.214844 12.621094 3.183594 12.652344 C 3.144531 12.6875 3.125 12.726562 3.132812 12.765625 C 3.144531 12.816406 3.195312 12.878906 3.304688 12.949219 C 3.316406 12.957031 3.324219 12.964844 3.328125 12.976562 C 3.40625 12.996094 3.484375 13.011719 3.5625 13.03125 C 3.570312 13.03125 3.578125 13.03125 3.582031 13.03125 C 3.660156 13.046875 3.734375 13.0625 3.8125 13.074219 C 3.824219 13.078125 3.835938 13.078125 3.84375 13.082031 C 3.917969 13.09375 3.996094 13.105469 4.070312 13.117188 C 4.085938 13.121094 4.097656 13.121094 4.113281 13.125 C 4.1875 13.136719 4.261719 13.144531 4.335938 13.15625 C 4.351562 13.15625 4.367188 13.160156 4.382812 13.160156 C 4.457031 13.167969 4.535156 13.179688 4.609375 13.1875 C 4.625 13.1875 4.640625 13.191406 4.660156 13.191406 C 4.734375 13.199219 4.808594 13.207031 4.882812 13.214844 C 4.902344 13.214844 4.921875 13.21875 4.941406 13.21875 C 5.015625 13.226562 5.089844 13.230469 5.164062 13.234375 C 5.183594 13.238281 5.203125 13.238281 5.222656 13.242188 C 5.296875 13.246094 5.371094 13.25 5.445312 13.253906 C 5.464844 13.257812 5.488281 13.257812 5.507812 13.257812 C 5.582031 13.261719 5.65625 13.265625 5.730469 13.269531 C 5.753906 13.269531 5.777344 13.273438 5.796875 13.273438 C 5.871094 13.277344 5.941406 13.28125 6.015625 13.28125 C 6.039062 13.28125 6.0625 13.285156 6.089844 13.285156 C 6.160156 13.289062 6.230469 13.289062 6.304688 13.292969 C 6.328125 13.292969 6.355469 13.292969 6.378906 13.292969 C 6.449219 13.296875 6.519531 13.296875 6.589844 13.296875 C 6.617188 13.300781 6.644531 13.300781 6.675781 13.300781 C 6.742188 13.300781 6.808594 13.304688 6.878906 13.304688 C 6.90625 13.304688 6.9375 13.304688 6.96875 13.304688 C 7.035156 13.304688 7.097656 13.308594 7.164062 13.308594 C 7.203125 13.308594 7.242188 13.308594 7.277344 13.308594 C 7.335938 13.308594 7.390625 13.308594 7.449219 13.308594 C 7.542969 13.3125 7.636719 13.3125 7.726562 13.3125 C 7.789062 13.3125 7.851562 13.3125 7.910156 13.3125 C 7.941406 13.3125 7.972656 13.3125 8.003906 13.3125 C 8.035156 13.3125 8.066406 13.316406 8.101562 13.316406 C 8.132812 13.316406 8.164062 13.316406 8.195312 13.316406 C 8.226562 13.316406 8.257812 13.316406 8.289062 13.316406 C 8.328125 13.316406 8.367188 13.316406 8.40625 13.316406 C 8.429688 13.316406 8.453125 13.316406 8.480469 13.316406 C 8.523438 13.316406 8.566406 13.316406 8.609375 13.316406 C 8.628906 13.316406 8.648438 13.316406 8.671875 13.316406 C 8.714844 13.316406 8.761719 13.316406 8.808594 13.316406 C 8.828125 13.316406 8.84375 13.316406 8.863281 13.316406 C 8.910156 13.316406 8.957031 13.316406 9.007812 13.316406 C 9.023438 13.316406 9.042969 13.316406 9.058594 13.3125 C 9.109375 13.3125 9.15625 13.3125 9.207031 13.3125 C 9.222656 13.3125 9.238281 13.3125 9.253906 13.3125 C 9.304688 13.3125 9.355469 13.3125 9.40625 13.3125 C 9.421875 13.3125 9.4375 13.308594 9.453125 13.308594 C 9.503906 13.308594 9.554688 13.308594 9.605469 13.308594 C 9.621094 13.308594 9.632812 13.308594 9.648438 13.308594 C 9.699219 13.304688 9.753906 13.304688 9.804688 13.304688 C 9.820312 13.304688 9.832031 13.304688 9.84375 13.304688 C 9.898438 13.300781 9.953125 13.300781 10.007812 13.300781 C 10.019531 13.296875 10.03125 13.296875 10.042969 13.296875 C 10.097656 13.296875 10.152344 13.296875 10.207031 13.292969 C 10.214844 13.292969 10.226562 13.292969 10.238281 13.292969 C 10.292969 13.289062 10.351562 13.289062 10.40625 13.285156 C 10.414062 13.285156 10.421875 13.285156 10.433594 13.285156 C 10.488281 13.285156 10.546875 13.28125 10.605469 13.277344 C 10.613281 13.277344 10.617188 13.277344 10.625 13.277344 C 10.683594 13.273438 10.746094 13.273438 10.804688 13.269531 C 10.808594 13.269531 10.8125 13.269531 10.816406 13.269531 C 10.878906 13.265625 10.9375 13.261719 11 13.257812 C 11.003906 13.257812 11.003906 13.257812 11.003906 13.257812 C 11.972656 13.203125 12.890625 13.097656 13.636719 12.898438 C 13.789062 12.792969 13.800781 12.710938 13.753906 12.648438 C 13.71875 12.601562 13.652344 12.5625 13.585938 12.53125 C 13.5 12.675781 12.851562 12.808594 11.871094 12.898438 C 11.726562 12.925781 11.5 12.9375 11.273438 12.945312 C 10.460938 13.003906 9.488281 13.035156 8.441406 13.035156 C 5.777344 13.035156 3.585938 12.824219 3.3125 12.550781 Z M 3.3125 12.550781 " fill-opacity="1" fill-rule="nonzero"/></g><g clip-path="url(#b57ff13f05)"><path fill="#000000" d="M 1.230469 4.207031 C 1.335938 4.132812 1.433594 4.0625 1.542969 3.992188 C 1.648438 3.917969 1.757812 3.847656 1.859375 3.773438 C 1.953125 3.707031 1.964844 3.726562 2.019531 3.8125 C 2.402344 4.402344 2.796875 4.988281 3.179688 5.582031 C 3.203125 5.65625 3.140625 5.613281 3.210938 5.710938 C 3.285156 5.8125 3.90625 6.65625 3.933594 6.710938 C 4.089844 6.710938 4.128906 6.714844 4.195312 6.824219 C 4.453125 6.835938 4.6875 6.878906 4.773438 7.175781 C 4.78125 7.257812 4.789062 7.292969 4.773438 7.371094 C 4.738281 7.554688 4.6875 7.488281 4.773438 7.574219 C 4.785156 7.585938 4.785156 7.589844 4.792969 7.605469 L 4.808594 7.625 C 4.808594 7.625 4.8125 7.628906 4.8125 7.628906 L 4.816406 7.664062 L 4.820312 7.703125 C 4.785156 7.851562 4.726562 7.90625 4.644531 7.992188 C 4.652344 8.050781 4.804688 8.335938 4.839844 8.410156 C 4.902344 8.546875 4.964844 8.679688 5.035156 8.820312 C 5.226562 9.203125 5.425781 9.632812 5.621094 10.046875 L 6.300781 11.464844 L 6.539062 11.285156 C 6.546875 11.277344 6.679688 11.175781 6.796875 11.109375 C 6.8125 11.097656 6.84375 11.117188 6.859375 11.105469 C 6.878906 11.09375 6.886719 11.050781 6.90625 11.035156 C 7.070312 10.90625 7.152344 10.800781 7.195312 10.785156 L 7.335938 10.675781 L 7.382812 10.640625 C 7.386719 10.632812 7.398438 10.628906 7.40625 10.625 C 7.410156 10.617188 7.421875 10.613281 7.429688 10.605469 C 7.429688 10.605469 7.488281 10.5625 7.492188 10.558594 C 7.65625 10.488281 7.820312 10.339844 7.925781 10.304688 C 8.292969 10.179688 8.082031 10.410156 8.40625 10.25 C 8.515625 10.292969 8.488281 10.292969 8.523438 10.308594 C 8.824219 10.433594 8.691406 10.222656 8.949219 10.695312 L 9.039062 10.828125 C 9.078125 10.875 9.105469 10.914062 9.148438 10.945312 L 9.613281 11.207031 C 9.980469 11.316406 9.683594 11.273438 10.023438 11.492188 C 10.144531 11.570312 10.054688 11.496094 10.140625 11.605469 L 10.386719 11.917969 C 10.421875 11.964844 10.417969 11.953125 10.4375 11.96875 C 10.480469 12.015625 10.445312 12 10.488281 12.019531 C 12.023438 12.082031 13.214844 12.210938 13.671875 12.378906 C 13.679688 12.378906 13.6875 12.382812 13.699219 12.382812 C 13.722656 12.390625 13.746094 12.398438 13.769531 12.40625 C 13.878906 12.445312 14.039062 12.511719 14.117188 12.613281 C 14.191406 12.710938 14.199219 12.832031 14.042969 12.964844 L 12.277344 15.597656 C 11.832031 16.261719 11.507812 16.902344 11.886719 17.726562 C 12.25 18.636719 12.375 19.515625 12.246094 20.359375 C 12.136719 21.078125 11.839844 21.773438 11.347656 22.441406 L 11.648438 23.683594 C 11.988281 23.714844 12.199219 23.964844 12.347656 24.3125 C 12.570312 24.355469 12.710938 24.449219 12.796875 24.582031 C 13.109375 25.046875 12.742188 25.097656 12.382812 25.148438 C 11.152344 25.3125 10.058594 25.351562 8.835938 25.355469 C 7.613281 25.351562 6.515625 25.3125 5.285156 25.148438 C 4.929688 25.097656 4.558594 25.046875 4.871094 24.582031 C 4.960938 24.449219 5.101562 24.355469 5.324219 24.3125 C 5.472656 23.964844 5.679688 23.714844 6.023438 23.683594 L 6.308594 22.496094 C 5.335938 21.527344 5.152344 19.90625 5.476562 18.597656 C 5.566406 18.246094 5.710938 17.824219 5.734375 17.445312 C 5.792969 16.5625 5.363281 16.152344 4.875 15.363281 L 3.402344 12.984375 C 3.34375 12.929688 3.308594 12.875 3.300781 12.824219 C 3.28125 12.738281 3.316406 12.664062 3.378906 12.605469 C 3.433594 12.554688 3.515625 12.496094 3.601562 12.449219 C 3.664062 12.414062 3.726562 12.382812 3.785156 12.367188 C 3.960938 12.308594 4.226562 12.253906 4.566406 12.207031 C 4.570312 12.199219 4.574219 12.191406 4.585938 12.1875 C 4.605469 12.179688 4.632812 12.175781 4.644531 12.164062 C 4.664062 12.144531 4.65625 12.105469 4.691406 12.113281 C 4.722656 12.121094 4.71875 12.160156 4.738281 12.144531 C 4.746094 12.136719 4.738281 12.105469 4.757812 12.089844 C 4.789062 12.0625 4.84375 12.054688 4.929688 11.984375 L 4.972656 11.945312 C 5.039062 11.863281 5.125 12.101562 5.316406 12.074219 L 5.492188 12.042969 C 5.480469 12.023438 5.46875 12.023438 5.429688 11.917969 C 5.566406 11.949219 5.722656 11.953125 5.792969 11.894531 C 5.457031 11.1875 4.820312 9.851562 4.804688 9.816406 L 4.492188 9.167969 C 4.46875 9.113281 4.101562 8.335938 4.074219 8.300781 C 3.972656 8.304688 3.902344 8.332031 3.808594 8.289062 C 3.773438 8.277344 3.746094 8.253906 3.726562 8.226562 C 3.699219 8.1875 3.707031 8.152344 3.6875 8.121094 C 3.65625 8.089844 3.46875 8.101562 3.339844 7.953125 C 3.253906 7.851562 3.210938 7.707031 3.25 7.546875 C 3.261719 7.484375 3.292969 7.410156 3.320312 7.363281 C 3.390625 7.246094 3.300781 7.285156 3.324219 7.160156 C 3.335938 7.074219 3.40625 7.050781 3.359375 6.988281 C 3.167969 6.734375 2.988281 6.46875 2.800781 6.21875 C 2.761719 6.164062 2.726562 6.117188 2.6875 6.0625 C 2.59375 5.929688 2.613281 6.039062 2.539062 5.949219 L 1.820312 5.082031 C 1.660156 4.890625 1.5 4.699219 1.339844 4.503906 C 1.1875 4.320312 1.113281 4.285156 1.230469 4.207031 Z M 10.757812 12.207031 C 10.820312 12.289062 10.84375 12.144531 10.90625 12.414062 C 10.980469 12.734375 10.886719 12.320312 11.15625 12.5625 C 11.214844 12.613281 11.230469 12.652344 11.265625 12.691406 C 11.324219 12.753906 11.398438 12.796875 11.480469 12.824219 C 12.578125 12.773438 13.285156 12.679688 13.285156 12.527344 C 13.285156 12.34375 12.257812 12.25 10.757812 12.207031 Z M 4.148438 12.527344 C 4.148438 12.578125 4.230469 12.621094 4.375 12.660156 C 4.375 12.65625 4.371094 12.648438 4.371094 12.644531 C 4.367188 12.621094 4.410156 12.601562 4.414062 12.550781 C 4.414062 12.535156 4.460938 12.542969 4.46875 12.527344 C 4.480469 12.507812 4.457031 12.5 4.472656 12.484375 C 4.480469 12.476562 4.515625 12.457031 4.523438 12.449219 C 4.546875 12.425781 4.539062 12.398438 4.550781 12.375 C 4.550781 12.367188 4.554688 12.363281 4.554688 12.355469 C 4.292969 12.402344 4.148438 12.460938 4.148438 12.527344 Z M 3.589844 12.585938 C 3.539062 12.617188 3.492188 12.652344 3.457031 12.6875 C 3.421875 12.71875 3.398438 12.757812 3.410156 12.800781 C 3.417969 12.851562 3.46875 12.910156 3.582031 12.980469 C 3.59375 12.988281 3.601562 13 3.605469 13.011719 C 3.679688 13.03125 3.761719 13.046875 3.839844 13.0625 C 3.847656 13.0625 3.851562 13.066406 3.859375 13.066406 C 3.933594 13.082031 4.011719 13.09375 4.089844 13.109375 C 4.097656 13.109375 4.109375 13.113281 4.121094 13.113281 C 4.195312 13.128906 4.273438 13.140625 4.347656 13.152344 C 4.359375 13.152344 4.375 13.15625 4.386719 13.15625 C 4.460938 13.167969 4.539062 13.179688 4.613281 13.1875 C 4.628906 13.1875 4.644531 13.191406 4.660156 13.191406 C 4.734375 13.203125 4.808594 13.210938 4.882812 13.21875 C 4.902344 13.222656 4.917969 13.222656 4.933594 13.226562 C 5.007812 13.234375 5.085938 13.238281 5.160156 13.246094 C 5.179688 13.25 5.195312 13.25 5.214844 13.25 C 5.289062 13.257812 5.363281 13.265625 5.4375 13.269531 C 5.457031 13.269531 5.480469 13.273438 5.5 13.273438 C 5.574219 13.277344 5.648438 13.285156 5.722656 13.289062 C 5.742188 13.289062 5.761719 13.289062 5.785156 13.292969 C 5.859375 13.296875 5.933594 13.300781 6.003906 13.304688 C 6.027344 13.304688 6.050781 13.304688 6.074219 13.304688 C 6.144531 13.308594 6.21875 13.3125 6.292969 13.316406 C 6.316406 13.316406 6.339844 13.316406 6.363281 13.316406 C 6.4375 13.320312 6.507812 13.324219 6.578125 13.324219 C 6.605469 13.324219 6.628906 13.324219 6.65625 13.328125 C 6.726562 13.328125 6.796875 13.328125 6.867188 13.332031 C 6.894531 13.332031 6.921875 13.332031 6.949219 13.332031 C 7.019531 13.335938 7.085938 13.335938 7.152344 13.335938 C 7.183594 13.335938 7.214844 13.335938 7.246094 13.339844 C 7.308594 13.339844 7.375 13.339844 7.4375 13.339844 C 7.476562 13.339844 7.515625 13.339844 7.554688 13.339844 C 7.609375 13.34375 7.667969 13.34375 7.722656 13.34375 C 7.816406 13.34375 7.910156 13.34375 8.003906 13.34375 C 8.066406 13.347656 8.125 13.347656 8.1875 13.347656 C 8.21875 13.347656 8.25 13.347656 8.277344 13.347656 C 8.3125 13.347656 8.34375 13.347656 8.375 13.347656 C 8.40625 13.347656 8.441406 13.347656 8.472656 13.347656 C 8.503906 13.347656 8.535156 13.347656 8.566406 13.347656 C 8.601562 13.347656 8.640625 13.347656 8.679688 13.347656 C 8.707031 13.347656 8.730469 13.347656 8.753906 13.347656 C 8.796875 13.347656 8.839844 13.347656 8.882812 13.347656 C 8.90625 13.347656 8.925781 13.347656 8.945312 13.347656 C 8.992188 13.347656 9.039062 13.347656 9.082031 13.347656 C 9.101562 13.347656 9.121094 13.347656 9.140625 13.347656 C 9.1875 13.347656 9.234375 13.347656 9.28125 13.347656 C 9.300781 13.347656 9.316406 13.347656 9.335938 13.347656 C 9.382812 13.347656 9.433594 13.347656 9.480469 13.347656 C 9.5 13.347656 9.515625 13.34375 9.53125 13.34375 C 9.582031 13.34375 9.632812 13.34375 9.679688 13.34375 C 9.695312 13.34375 9.710938 13.34375 9.726562 13.34375 C 9.777344 13.34375 9.828125 13.339844 9.882812 13.339844 C 9.894531 13.339844 9.910156 13.339844 9.921875 13.339844 C 9.976562 13.339844 10.03125 13.335938 10.082031 13.335938 C 10.09375 13.335938 10.109375 13.335938 10.121094 13.335938 C 10.175781 13.335938 10.226562 13.332031 10.28125 13.332031 C 10.292969 13.332031 10.304688 13.332031 10.316406 13.332031 C 10.371094 13.328125 10.425781 13.328125 10.480469 13.328125 C 10.492188 13.324219 10.503906 13.324219 10.511719 13.324219 C 10.570312 13.324219 10.625 13.320312 10.683594 13.320312 C 10.691406 13.320312 10.699219 13.320312 10.707031 13.320312 C 10.765625 13.316406 10.824219 13.3125 10.882812 13.3125 C 10.886719 13.3125 10.894531 13.3125 10.902344 13.3125 C 10.960938 13.308594 11.019531 13.304688 11.078125 13.300781 C 11.082031 13.300781 11.085938 13.300781 11.089844 13.300781 C 11.152344 13.300781 11.214844 13.296875 11.277344 13.292969 C 11.277344 13.292969 11.277344 13.292969 11.28125 13.292969 C 12.246094 13.234375 13.167969 13.128906 13.910156 12.933594 C 14.066406 12.824219 14.078125 12.742188 14.03125 12.683594 C 13.996094 12.636719 13.929688 12.597656 13.863281 12.5625 C 13.773438 12.710938 13.128906 12.839844 12.144531 12.933594 C 12 12.957031 11.777344 12.972656 11.550781 12.980469 C 10.738281 13.035156 9.765625 13.070312 8.71875 13.070312 C 6.054688 13.066406 3.863281 12.855469 3.589844 12.585938 Z M 3.589844 12.585938 " fill-opacity="1" fill-rule="nonzero"/></g></svg>